<?xml version="1.0" encoding="UTF-8"?>
<svg width="318px" height="80px" viewBox="0 0 318 80" version="1.1" xmlns="http://www.w3.org/2000/svg" xmlns:xlink="http://www.w3.org/1999/xlink">
    <!-- Generator: Sketch 51.3 (57544) - http://www.bohemiancoding.com/sketch -->
    <title>Logo_largo_color_fondo_blanco</title>
    <desc>Created with Sketch.</desc>
    <defs></defs>
    <g id="Page-1" stroke="none" stroke-width="1" fill="none" fill-rule="evenodd">
        <g id="Marca_Personal" transform="translate(-791.000000, -309.000000)">
            <g id="Logo_largo_color_fondo_blanco" transform="translate(770.000000, 297.000000)">
                <rect id="Rectangle-7" fill-rule="nonzero" x="0" y="0" width="362" height="104"></rect>
                <g id="Group-Copy" transform="translate(21.000000, 12.000000)">
                    <g id="Logo-Copy">
                        <rect id="Rectangle-6" fill="#374F75" fill-rule="nonzero" x="0" y="0" width="81" height="80" rx="20"></rect>
                        <g id="Logo-final" transform="translate(10.125000, 15.000000)" fill="#EECF7B">
                            <path d="M20.4964817,0.706384608 C25.9480748,1.06582357 22.5093516,2.58485049 25.2233595,6.61507703 C27.9373674,10.6453036 29.294351,16.5083983 29.294351,24.2045371 C29.294351,29.168319 28.6298487,33.5058706 27.3008242,37.2173222 C25.9717997,40.9287737 24.5764546,44.46106 22.0722927,46.5103277 C19.5681308,48.5595954 23.2163836,48.8639355 19.7469302,48.8639355 L9.98861824,48.8639355 C8.3658094,48.772857 7.10675163,48.8639355 6.3792856,48.8639355 C3.49740094,48.8639355 1.4269526,48.7273177 0,48.8639355 L0,47.5660725 C0.923322269,47.4749939 1.60181406,47.2928395 2.03549573,47.0196038 C2.4691774,46.7463681 2.76295736,46.2226742 2.9168444,45.4485064 C3.07073145,44.6743386 3.14767381,43.4220271 3.14767381,41.6915343 L3.14767381,7.81047723 C3.14767381,6.07998448 3.07073145,4.82767298 2.9168444,4.05350517 C2.76295736,3.27933736 2.4691774,2.75564346 2.03549573,2.48240776 C1.60181406,2.20917207 0.923322269,2.02701767 0,1.9359391 L0,0.569767442 C0.853558467,0.569767442 2.55709943,0.569767442 5.11062289,0.569767442 L6.51233324,0.569767442 L8.08351655,0.569767442 C9.45525917,0.569767442 11.662842,0.557562918 14.3777156,0.569767442 C15.7239379,0.57581929 17.1669495,0.518004076 18.7139655,0.569767442 C19.2882814,0.588984126 19.9057727,0.667437491 20.4964817,0.706384608 Z M18.3710748,1.79932193 C17.1383775,1.79932193 16.2138684,1.95870703 15.5975197,2.27748201 C14.981171,2.59625699 14.5537098,3.16548949 14.3151232,3.98519659 C14.0765367,4.80490368 13.9572452,6.03444588 13.9572452,7.67386006 L13.9572452,41.8281515 C13.9572452,43.4675657 14.0765367,44.6971079 14.3151232,45.516815 C14.5537098,46.3365221 14.981171,46.9057546 15.5975197,47.2245296 C16.2138684,47.5433045 17.1582594,47.7026896 18.4307212,47.7026896 C23.2422172,47.7026896 26.6619069,45.7786838 28.6898928,41.9306144 C30.7178788,38.082545 31.7318565,32.2649888 31.7318565,24.4777715 C31.7318565,16.6905541 30.6880559,10.9640751 28.6004233,7.29816286 C26.5127907,3.63225058 23.103042,1.79932193 18.3710748,1.79932193 Z" id="D-Copy-7"></path>
                            <path d="M36.2370914,0.569767442 C43.9911552,0.569767442 49.7966749,2.58485049 53.6538246,6.61507703 C57.5109744,10.6453036 59.4395203,16.5083983 59.4395203,24.2045371 C59.4395203,29.168319 58.4951292,33.5058706 56.6063188,37.2173222 C54.7175084,40.9287737 51.9936858,43.8090902 48.4347693,45.8583579 C44.8758528,47.9076256 40.6310636,48.9322441 35.7002742,48.9322441 L32.0022007,48.8639355 C29.6958638,48.772857 27.9064901,48.8639355 26.8726149,48.8639355 C25.1590779,48.8639355 23.3751802,48.8400227 21.7312152,48.8222104 C19.4457366,48.7974473 17.4307092,48.7844746 16.2511736,48.8639355 C11.0270779,46.5869828 9.86388245,45.9722055 12.7615872,47.0196038 C17.1081444,48.5907012 20.0828693,47.2928395 20.699218,47.0196038 C21.3155667,46.7463681 21.7330869,46.2226742 21.9517913,45.4485064 C22.1704957,44.6743386 22.2798462,43.4220271 22.2798462,41.6915343 L22.2798462,7.81047723 C22.2798462,6.07998448 22.1704957,4.82767298 21.9517913,4.05350517 C21.7330869,3.27933736 21.5103823,2.67235015 20.9770992,2.11703172 C20.9374641,2.07575892 20.9347909,2.08576567 20.6094403,1.91268016 C20.2840897,1.73959465 16.5881247,0.222676469 13.8634069,2.48240776 C11.7902788,4.2017463 12.9698817,3.60973858 17.4022154,0.706384608 C17.76157,0.735780494 18.5053673,0.569767442 19.5742319,0.569767442 C19.9072222,0.569767442 20.4776479,0.569767442 21.2855091,0.569767442 L25.1056273,0.569767442 L27.0215763,0.569767442 L29.2549452,0.569767442 C32.5156284,0.478688876 34.8453363,0.569767442 36.2370914,0.569767442 Z M36.177445,1.79932193 C40.9094122,1.79932193 44.3191609,3.63225058 46.4067935,7.29816286 C48.4944261,10.9640751 49.5382267,16.6905541 49.5382267,24.4777715 C49.5382267,32.2649888 48.524249,38.082545 46.496263,41.9306144 C44.4682771,45.7786838 41.0485874,47.7026896 36.2370914,47.7026896 C34.9646296,47.7026896 34.0202386,47.5433045 33.4038899,47.2245296 C32.7875412,46.9057546 32.36008,46.3365221 32.1214934,45.516815 C31.8829069,44.6971079 31.7636154,43.4675657 31.7636154,41.8281515 L31.7636154,7.67386006 C31.7636154,6.03444588 31.8829069,4.80490368 32.1214934,3.98519659 C32.36008,3.16548949 32.7875412,2.59625699 33.4038899,2.27748201 C34.0202386,1.95870703 34.9447477,1.79932193 36.177445,1.79932193 Z" id="D-Copy-8"></path>
                        </g>
                    </g>
                    <text id="DaniDev" font-family="PlayfairDisplay-Bold, Playfair Display" font-size="56" font-weight="bold" fill="#374F75">
                        <tspan x="94" y="61">DaniDev</tspan>
                    </text>
                </g>
            </g>
        </g>
    </g>
</svg>