<?xml version="1.0" encoding="UTF-8"?>
<svg width="310px" height="310px" viewBox="0 0 310 310" version="1.1" xmlns="http://www.w3.org/2000/svg" xmlns:xlink="http://www.w3.org/1999/xlink">
    <!-- Generator: Sketch 51.3 (57544) - http://www.bohemiancoding.com/sketch -->
    <title>linkedin</title>
    <desc>Created with Sketch.</desc>
    <defs></defs>
    <g id="Page-1" stroke="none" stroke-width="1" fill="none" fill-rule="evenodd">
        <g id="linkedin" fill="#394E74" fill-rule="nonzero">
            <path d="M72.16,99.73 L9.927,99.73 C7.165,99.73 4.927,101.969 4.927,104.73 L4.927,304.658 C4.927,307.42 7.165,309.658 9.927,309.658 L72.16,309.658 C74.922,309.658 77.16,307.42 77.16,304.658 L77.16,104.73 C77.16,101.969 74.922,99.73 72.16,99.73 Z" id="XMLID_802_"></path>
            <path d="M41.066,0.341 C18.422,0.341 0,18.743 0,41.362 C0,63.991 18.422,82.4 41.066,82.4 C63.692,82.4 82.099,63.99 82.099,41.362 C82.1,18.743 63.692,0.341 41.066,0.341 Z" id="XMLID_803_"></path>
            <path d="M230.454,94.761 C205.459,94.761 186.982,105.506 175.775,117.715 L175.775,104.73 C175.775,101.969 173.537,99.73 170.775,99.73 L111.176,99.73 C108.414,99.73 106.176,101.969 106.176,104.73 L106.176,304.658 C106.176,307.42 108.414,309.658 111.176,309.658 L173.273,309.658 C176.035,309.658 178.273,307.42 178.273,304.658 L178.273,205.74 C178.273,172.407 187.327,159.421 210.563,159.421 C235.869,159.421 237.88,180.239 237.88,207.455 L237.88,304.659 C237.88,307.421 240.118,309.659 242.88,309.659 L305,309.659 C307.762,309.659 310,307.421 310,304.659 L310,194.995 C310,145.43 300.549,94.761 230.454,94.761 Z" id="XMLID_804_"></path>
        </g>
    </g>
</svg>