<?xml version="1.0" encoding="UTF-8"?>
<svg width="612px" height="498px" viewBox="0 0 612 498" version="1.1" xmlns="http://www.w3.org/2000/svg" xmlns:xlink="http://www.w3.org/1999/xlink">
    <!-- Generator: Sketch 51.3 (57544) - http://www.bohemiancoding.com/sketch -->
    <title>twitter-logo</title>
    <desc>Created with Sketch.</desc>
    <defs></defs>
    <g id="Page-1" stroke="none" stroke-width="1" fill="none" fill-rule="evenodd">
        <g id="twitter-logo" fill="#394E74" fill-rule="nonzero">
            <path d="M611.999,58.817 C589.474,68.798 565.305,75.567 539.911,78.589 C565.84,63.062 585.688,38.434 595.095,9.178 C570.773,23.557 543.926,33.998 515.32,39.658 C492.413,15.221 459.83,0 423.69,0 C354.356,0 298.139,56.217 298.139,125.513 C298.139,135.341 299.248,144.94 301.39,154.119 C197.064,148.879 104.555,98.896 42.64,22.945 C31.817,41.455 25.66,63.023 25.66,86.046 C25.66,129.605 47.841,168.039 81.495,190.525 C60.92,189.837 41.569,184.177 24.628,174.769 L24.628,176.337 C24.628,237.143 67.919,287.891 125.321,299.441 C114.804,302.271 103.714,303.839 92.241,303.839 C84.134,303.839 76.294,303.036 68.607,301.506 C84.592,351.413 130.943,387.705 185.86,388.7 C142.913,422.354 88.761,442.355 29.944,442.355 C19.81,442.355 9.828,441.743 0,440.634 C55.567,476.315 121.536,497.119 192.438,497.119 C423.386,497.119 549.626,305.828 549.626,139.931 L549.205,123.678 C573.871,106.085 595.21,83.981 611.999,58.817 Z" id="Shape"></path>
        </g>
    </g>
</svg>