<?xml version="1.0" encoding="UTF-8"?>
<svg width="140px" height="140px" viewBox="0 0 140 140" version="1.1" xmlns="http://www.w3.org/2000/svg" xmlns:xlink="http://www.w3.org/1999/xlink">
    <!-- Generator: Sketch 51.3 (57544) - http://www.bohemiancoding.com/sketch -->
    <title>Logo_White</title>
    <desc>Created with Sketch.</desc>
    <defs></defs>
    <g id="Page-1" stroke="none" stroke-width="1" fill="none" fill-rule="evenodd">
        <g id="Marca_Personal" transform="translate(-68.000000, -56.000000)">
            <g id="Logo_White" transform="translate(68.000000, 56.000000)">
                <rect id="Rectangle-6" fill="#374F75" fill-rule="nonzero" x="0" y="0" width="140" height="140" rx="20"></rect>
                <g id="Logo-final" transform="translate(18.000000, 27.000000)" fill="#FFFFFF">
                    <path d="M35.6833496,1.23977707 C45.1743006,1.87062912 39.1876555,4.53667636 43.9126074,11.6101352 C48.6375594,18.683594 51,28.9739236 51,42.4814325 C51,51.1933761 49.8431348,58.8062219 47.5293696,65.3201981 C45.2156045,71.8341743 42.7863785,78.0336971 38.4267578,81.6303711 C34.0671372,85.2270451 40.4185628,85.761193 34.378418,85.761193 L17.3896848,85.761193 C14.5644558,85.6013408 12.3724992,85.761193 11.1060172,85.761193 C6.08880013,85.761193 2.48425311,85.5214147 0,85.761193 L0,83.4833109 C1.60745789,83.3234587 2.78867817,83.0037591 3.54369628,82.5242026 C4.29871438,82.0446461 4.81017058,81.1255098 5.07808023,79.7667663 C5.34598988,78.4080228 5.47994269,76.2100884 5.47994269,73.172897 L5.47994269,13.7081845 C5.47994269,10.6709932 5.34598988,8.4730587 5.07808023,7.1143152 C4.81017058,5.75557169 4.29871438,4.83643546 3.54369628,4.35687893 C2.78867817,3.8773224 1.60745789,3.55762284 0,3.39777066 L0,1 C1.4860026,1 4.45178223,1 8.89733887,1 L11.3376465,1 L14.072998,1 C16.4611334,1 20.3044247,0.978579816 25.0308838,1 C27.3745896,1.01062161 29.8868005,0.909150012 32.5800781,1 C33.5799332,1.03372724 34.6549548,1.1714209 35.6833496,1.23977707 Z M31.9831225,3.1579936 C29.8370581,3.1579936 28.227534,3.43773071 27.1545018,3.99721333 C26.0814696,4.55669595 25.337281,5.55575707 24.9219137,6.99442666 C24.5065464,8.43309625 24.2988658,10.5910683 24.2988658,13.4684075 L24.2988658,73.4126741 C24.2988658,76.2900133 24.5065464,78.4479853 24.9219137,79.8866549 C25.337281,81.3253245 26.0814696,82.3243856 27.1545018,82.8838682 C28.227534,83.4433508 29.8716715,83.7230879 32.0869638,83.7230879 C40.4635378,83.7230879 46.4170465,80.3462613 49.9476686,73.5925069 C53.4782907,66.8387524 55.2435753,56.6283478 55.2435753,42.9609866 C55.2435753,29.2936255 53.4263706,19.2430706 49.7919067,12.8090205 C46.1574427,6.3749704 40.2212407,3.1579936 31.9831225,3.1579936 Z" id="D-Copy-7"></path>
                    <path d="M63.0869638,1 C76.5864012,1 86.6935207,4.53667636 93.4086254,11.6101352 C100.12373,18.683594 103.481232,28.9739236 103.481232,42.4814325 C103.481232,51.1933761 101.837095,58.8062219 98.5487701,65.3201981 C95.2604456,71.8341743 90.5184067,76.8894236 84.3225111,80.4860975 C78.1266155,84.0827715 70.7366497,85.8810815 62.1523921,85.8810815 L55.714231,85.761193 C51.6990138,85.6013408 48.5838036,85.761193 46.7838786,85.761193 C43.8006964,85.761193 40.6950197,85.7192236 37.8329589,85.6879611 C33.854055,85.6444993 30.3459929,85.621731 28.2924805,85.761193 C19.1975911,81.7649086 17.172526,80.6859118 22.2172852,82.5242026 C29.7844238,85.2816389 34.9632712,83.0037591 36.0363034,82.5242026 C37.1093356,82.0446461 37.8362175,81.1255098 38.2169708,79.7667663 C38.5977242,78.4080228 38.788098,76.2100884 38.788098,73.172897 L38.788098,13.7081845 C38.788098,10.6709932 38.5977242,8.4730587 38.2169708,7.1143152 C37.8362175,5.75557169 37.4484999,4.69024719 36.5200806,3.71560669 C36.4510779,3.64316872 36.4464239,3.66073158 35.8800049,3.35694885 C35.3135858,3.05316612 28.8790955,0.390819924 24.135498,4.35687893 C20.5262858,7.3744935 22.5799154,6.33545954 30.2963867,1.23977707 C30.922005,1.29136985 32.2169189,1 34.0777588,1 C34.6574782,1 35.6505609,1 37.0570068,1 L43.7076416,1 L47.0432129,1 L50.9313965,1 C56.608083,0.840147823 60.6639879,1 63.0869638,1 Z M62.9831225,3.1579936 C71.2212407,3.1579936 77.1574427,6.3749704 80.7919067,12.8090205 C84.4263706,19.2430706 86.2435753,29.2936255 86.2435753,42.9609866 C86.2435753,56.6283478 84.4782907,66.8387524 80.9476686,73.5925069 C77.4170465,80.3462613 71.4635378,83.7230879 63.0869638,83.7230879 C60.8716715,83.7230879 59.227534,83.4433508 58.1545018,82.8838682 C57.0814696,82.3243856 56.337281,81.3253245 55.9219137,79.8866549 C55.5065464,78.4479853 55.2988658,76.2900133 55.2988658,73.4126741 L55.2988658,13.4684075 C55.2988658,10.5910683 55.5065464,8.43309625 55.9219137,6.99442666 C56.337281,5.55575707 57.0814696,4.55669595 58.1545018,3.99721333 C59.227534,3.43773071 60.8370581,3.1579936 62.9831225,3.1579936 Z" id="D-Copy-8"></path>
                </g>
            </g>
        </g>
    </g>
</svg>